<?xml version="1.0" encoding="UTF-8"?>
<svg width="700pt" height="700pt" version="1.1" viewBox="0 0 700 700" xmlns="http://www.w3.org/2000/svg" xmlns:xlink="http://www.w3.org/1999/xlink">
 <g>
  <path d="m585.98 349.46-45.902-33.098c2.2461-11.781 3.4727-23.906 3.4727-36.367 0-12.465-1.2266-24.586-3.4727-36.367l45.902-33.098c11.715-8.5117 15.188-24.449 7.8984-36.98l-29.691-51.555c-7.2852-12.531-22.816-17.57-36.027-11.645l-51.621 23.293c-18.32-15.867-39.637-28.332-62.996-36.438l-5.7227-56.324c-1.5-14.371-13.621-25.336-28.059-25.336l-59.523 0.003907c-14.438 0-26.559 10.965-28.059 25.336l-5.7188 56.32c-23.359 8.1055-44.676 20.566-62.996 36.438l-51.621-23.293c-13.211-5.9258-28.742-0.88672-36.027 11.645l-29.695 51.555c-7.2852 12.531-3.8125 28.469 7.9023 36.98l45.902 33.098c-2.25 11.781-3.4766 23.902-3.4766 36.367 0 12.461 1.2266 24.586 3.4727 36.367l-45.898 33.098c-11.715 8.5117-15.188 24.449-7.9023 36.98l29.695 51.555c7.2852 12.531 22.816 17.57 36.027 11.645l51.621-23.293c18.32 15.867 39.637 28.332 62.996 36.438l5.7188 56.32c1.5 14.371 13.621 25.336 28.059 25.336h59.523c14.438 0 26.559-10.965 28.059-25.336l5.7188-56.32c23.359-8.1055 44.676-20.566 62.996-36.438l51.621 23.293c13.211 5.9258 28.738 0.88672 36.027-11.645l29.691-51.555c7.2891-12.531 3.8164-28.469-7.8945-36.98zm-235.98 28.129c-53.938 0-97.594-43.656-97.594-97.594s43.652-97.594 97.594-97.594c53.938 0 97.594 43.656 97.594 97.594s-43.656 97.594-97.594 97.594z"/>
 </g>
</svg>
